<mxfile host="app.diagrams.net" modified="2023-04-27T12:56:48.759Z" agent="Mozilla/5.0 (Windows NT 10.0; Win64; x64) AppleWebKit/537.36 (KHTML, like Gecko) Chrome/112.0.0.0 Safari/537.36 Edg/112.0.1722.58" version="21.2.3" etag="_KFkFm0Nj_4z1-caU9ZO" type="github">
  <diagram name="Page-1" id="D3bwhRHWnsqV5eptxPOC">
    <mxGraphModel>
      <root>
        <mxCell id="0" />
        <mxCell id="1" parent="0" />
      </root>
    </mxGraphModel>
  </diagram>
</mxfile>
